
<svg xmlns="http://www.w3.org/2000/svg" version="1.1" xmlns:xlink="http://www.w3.org/1999/xlink" preserveAspectRatio="none" x="0px" y="0px" width="200px" height="200px" viewBox="0 0 200 200">
<defs>
<linearGradient id="Gradient_1" gradientUnits="userSpaceOnUse" x1="82.05" y1="25" x2="82.05" y2="175" spreadMethod="pad">
<stop  offset="0%" stop-color="#FFFFFF"/>

<stop  offset="100%" stop-color="#CCCCCC"/>
</linearGradient>

<g id="Layer0_0_FILL">
<path fill="url(#Gradient_1)" stroke="none" d="
M 200 0
L 0 0 0 200 200 200 200 0
M 190 22.9
L 181.6 53.75 147.2 53.75 127.9 123 128.05 123 124.7 134.9 84.35 134.9 106.5 53.75 146.5 53.75 116.5 22.9 190 22.9
M 116 22.9
L 98.7 22.9 51.2 53.75 93 53.75 70.9 134.9 28.65 134.9 51.1 53.75 10 53.75 18.55 22.9 98.7 22.9 109.3 16 116 22.9
M 15.95 180.9
L 20.05 166 62.35 166 61.85 168.05 61.6 168.05 58.25 180.9 15.95 180.9
M 71.75 180.9
L 75.7 166 116 166
Q 115.65 167.05 115.4 168.05
L 111.9 180.9 71.75 180.9
M 26.95 141.25
L 69.15 141.25 65.65 153.95 23.35 153.95 26.95 141.25
M 82.65 141.25
L 122.8 141.25 119.35 153.95 79.15 153.95 82.65 141.25 Z"/>

<path fill="#000000" stroke="none" d="
M 122.8 141.25
L 82.65 141.25 79.15 153.95 119.35 153.95 122.8 141.25
M 75.7 166
L 71.75 180.9 111.9 180.9 115.4 168.05
Q 115.65 167.05 116 166
L 75.7 166
M 181.6 53.75
L 190 22.9 116.5 22.9 146.5 53.75 106.5 53.75 84.35 134.9 124.7 134.9 128.05 123 127.9 123 147.2 53.75 181.6 53.75 Z"/>

<path fill="#13A6BF" stroke="none" d="
M 69.15 141.25
L 26.95 141.25 23.35 153.95 65.65 153.95 69.15 141.25
M 20.05 166
L 15.95 180.9 58.25 180.9 61.6 168.05 61.85 168.05 62.35 166 20.05 166
M 18.55 22.9
L 10 53.75 51.1 53.75 28.65 134.9 70.9 134.9 93 53.75 51.2 53.75 98.7 22.9 18.55 22.9
M 98.7 22.9
L 116 22.9 109.3 16 98.7 22.9
M 275 -281.75
L 320.65 -281.75 277.2 -123.95 324.05 -123.95 367.2 -281.75 320.95 -281.75 373.45 -315.8 393.45 -315.8 393.75 -315.8 385.65 -323.95 373.15 -315.8 284.4 -315.8 275 -281.75 Z"/>

<path fill="#FFFFFF" stroke="none" d="
M 465.65 -281.75
L 427.5 -281.75 383.75 -123.95 475 -123.95 475 -315.8 465.65 -281.75
M 393.45 -315.8
L 373.45 -315.8 320.95 -281.75 367.2 -281.75 324.05 -123.95 339.05 -123.95 382.2 -281.75 426.55 -281.75 393.45 -315.8
M 475 -315.8
L 475 -323.95 385.65 -323.95 393.75 -315.8 475 -315.8 Z"/>
</g>
</defs>

<g transform="matrix( 1, 0, 0, 1, 0,0) ">
<use xlink:href="#Layer0_0_FILL"/>
</g>
</svg>
