<svg xmlns="http://www.w3.org/2000/svg" version="1.1" xmlns:xlink="http://www.w3.org/1999/xlink" preserveAspectRatio="none" x="0px" y="0px" viewBox="0 0 1040 300">
<defs>
<linearGradient id="Gradient_1" gradientUnits="userSpaceOnUse" x1="961.9375" y1="28.237499999999997" x2="990.9625000000001" y2="10.562499999999998" spreadMethod="pad">
<stop  offset="0%" stop-color="#000000"/>

<stop  offset="100%" stop-color="#000000" stop-opacity="0"/>
</linearGradient>

<g id="Layer7_0_FILL">
<path fill="#000000" stroke="none" d="
M 733.9 69.15
Q 743.3 58.8 755.2 51.7
L 621.05 51.7 583.9 186.05 702 186.05 710 157.85 635.2 157.85 642.1 132.95 705.3 132.95
Q 706.35 125.3 708.8 116.5 710.5 110.4 712.55 104.75
L 649.85 104.75 656.25 82.45 723.7 82.45
Q 724.9 80.4 725.4 79.9 726.35 78.2 727.65 76.5 730.1 73.3 732.85 70.2 733.4 69.65 733.9 69.15
M 840.1 49.35
Q 828.9 47 816.05 47 793.3 46.8 774.55 53.2 773.3 53.7 772 54.05 752.3 61.35 738.25 77.1 735.95 79.65 733.9 82.45 733.8 82.55 733.7 82.65 722.95 97.1 717 117.95 711.8 136.6 713.8 150 715.75 163.4 723.3 171.8 724.05 172.6 724.8 173.4 732.1 180.75 743.15 184.25 755 188.4 770.2 188.4 789.1 188.6 805.7 185.1
L 812.55 160.65 787.85 160.65
Q 786.05 160.75 784.35 160.85 783.05 160.85 781.7 160.85 768.8 160.75 762.3 154.75 755.85 148.9 754.9 138.95 754 129.05 757.4 116.8 758.8 112 760.7 107.55 762.1 105 763.8 102.75 769.1 95.3 776.25 90.4 778.3 89 780.6 87.65 788.25 83.3 797.95 82.45 800.5 82.2 803.3 82.2 806.55 82 809.45 82.45
L 834.35 82.45 843.3 50.2
Q 841.7 49.85 840.1 49.35 Z"/>
</g>

<g id="Layer6_0_FILL">
<path fill="#13A6BF" stroke="none" d="
M 104.75 51.7
L 96.35 82.3 137 82.3 121.05 140.5 64.05 51.7 15 51.7 100.95 185.75 151.8 185.75 188.8 51.7 104.75 51.7 Z"/>
</g>

<g id="Layer5_0_FILL">
<path fill="#000000" stroke="none" d="
M 988.9 57.85
L 990.85 50.95 1025 50.95 985.4 10 922.1 50.95 951.25 50.95 936.55 104.05 875.7 104.05 890.75 49.85 851.15 49.85 813.15 186.4 852.75 186.4 867.75 132 928.7 132 913.6 186.4 953.25 186.4 967.75 134.45
Q 977.95 97.35 988.25 60.4 988.6 59.05 988.9 57.85
M 985.4 13
L 992.45 20.25 971.9 33.75 953.45 33.75 985.4 13 Z"/>

<path fill="url(#Gradient_1)" stroke="none" d="
M 992.45 20.25
L 985.4 13 953.45 33.75 971.9 33.75 992.45 20.25 Z"/>
</g>

<g id="Layer4_0_FILL">
<path fill="#13A6BF" stroke="none" d="
M 308.25 70.2
Q 308.7 69.65 309.15 69.15 318.7 58.8 330.5 51.7
L 196.35 51.7 159.15 186.05 277.3 186.05 285.4 157.85 210.5 157.85 217.4 132.95 280.7 132.95
Q 281.6 125.3 284.05 116.5 285.75 110.4 287.95 104.75
L 225.2 104.75 231.55 82.45 299 82.45
Q 300.3 80.4 300.7 79.9 301.6 78.2 302.95 76.5 305.4 73.3 308.25 70.2
M 409.65 82.45
L 418.7 50.2
Q 417.1 49.85 415.4 49.35 404.15 47 391.25 47 368.7 46.8 349.85 53.2 348.6 53.7 347.3 54.05 327.55 61.35 313.6 77.1 311.25 79.65 309.15 82.45 309.05 82.55 308.9 82.65 298.25 97.1 292.4 117.95 287.1 136.6 289 150 291.15 163.4 298.7 171.8 299.4 172.6 300.2 173.4 307.4 180.75 318.4 184.25 330.4 188.4 345.6 188.4 364.35 188.6 381.05 185.1
L 387.85 160.65 363.15 160.65
Q 361.35 160.75 359.65 160.85 358.3 160.85 357 160.85 344.1 160.75 337.65 154.75 331.15 148.9 330.2 138.95 329.35 129.05 332.65 116.8 334.05 112 336.05 107.55 337.4 105 339 102.75 344.35 95.3 351.55 90.4 353.6 89 355.85 87.65 363.6 83.3 373.25 82.45 375.75 82.2 378.6 82.2 381.9 82 384.85 82.45
L 409.65 82.45 Z"/>
</g>

<g id="Layer2_0_FILL">
<path fill="#999999" stroke="none" d="
M 230.3 258
L 231.15 255.2 214.25 255.2 203.9 292.35 221.15 292.35 221.9 289.55 208.05 289.55 212.1 274.7 224.9 274.7 225.85 271.9 213.05 271.9 216.8 258 230.3 258
M 201.35 256.4
Q 199.25 255.2 195.5 255.2
L 185.7 255.2 175.4 292.35 183.9 292.35
Q 188.05 292.35 190.95 291.25 193.8 290 195.75 287.75 197.85 285.5 199.15 282 200.75 278.6 201.9 274.05 203.3 269.35 203.8 265.65 204.55 262.15 203.9 259.9 203.4 257.65 201.35 256.4
M 200.85 263.5
Q 200.75 266.5 199.25 271.8 197.85 277.35 196.35 280.85 195.1 284.45 193.5 286.4 191.9 288.3 189.35 288.95 187.1 289.65 183.4 289.55
L 179.45 289.55 188.25 258 192.55 258
Q 197 258 198.9 259.35 200.85 260.5 200.85 263.5
M 304.9 259.55
L 305 259.45 310.95 292.35 315.95 292.35 326.25 255.2 322.95 255.2 313.8 287.75 313.8 287.85 307.85 255.2 302.75 255.2 292.4 292.35 295.75 292.35 304.9 259.55
M 252.45 292.35
L 255.85 292.35 266.15 255.2 262.85 255.2 252.45 292.35
M 245.7 257.35
Q 248.05 257.35 249.15 258.2 250.4 259.05 250.5 260.75 250.5 262.35 249.85 264.65
L 253.15 264.65
Q 254 262 253.9 259.65 253.8 257.35 252.1 256.05 250.5 254.55 246.6 254.55 243.6 254.55 241.05 255.5 238.6 256.4 236.8 258.4 235 260.5 234.05 263.7 233.7 265.5 233.5 266.9 233.5 268.5 234.65 270.1 235.95 271.8 238.8 274.05 241.05 275.5 242.55 276.8 244.15 278 244.85 279.7 245.4 281.25 244.75 283.7 243.8 287 241.8 288.7 239.65 290.3 236.45 290.3 233.3 290.3 232.1 289.05 230.95 287.75 231.15 285.95 231.25 284.05 232 281.9
L 228.6 281.9
Q 226.7 287.35 228.6 290.2 230 293.1 235.6 293.1 240.4 293.1 243.6 290.55 246.7 288.1 248.25 283.2 248.9 280.5 248.6 278.85 248.3 277.15 247.3 276.05 246.25 274.8 244.85 274.05 243.5 272.95 242.2 271.8 240.75 270.65 239.75 269.9 238.8 269.15 237.95 268.4 237.3 267.55 237.2 266.35 236.9 265 237.55 263.1 238.5 259.8 240.7 258.6 242.55 257.25 245.7 257.35
M 271.35 263.95
Q 270.2 266.5 269.45 269.15 268.8 271.7 268.15 273.85 267.55 276.05 266.7 278.6 266.15 281.15 265.95 283.7 265.5 286.25 266.15 288.4 266.6 290.4 268.5 291.7 270.5 293 273.9 293.1 276.45 293.1 279.15 292.75 281.9 292.35 284.65 291.6
L 289.75 272.95 278.9 272.95 278.15 275.75 285.7 275.75 281.9 289.15
Q 280.6 289.65 278.7 290 276.7 290.3 274.65 290.3 271.9 290.3 270.5 289.05 269.15 287.75 269.05 285.55 269.05 283.3 269.75 280.4 270.5 277.25 271.35 273.85 272.4 270.3 273.4 267.35 274.25 264.35 275.6 262.1 277 259.8 279 258.6 280.95 257.35 283.8 257.35 287.75 257.35 289 259.25 290.1 261.15 289.05 264.8
L 292.4 264.8
Q 293.9 259.45 291.9 257 290 254.55 284.65 254.55 281.15 254.55 278.4 255.85 275.95 257.1 274.15 259.35 272.4 261.4 271.35 263.95
M 518.15 292.35
L 522.4 292.35 531.35 260.2 537 292.35 543.5 292.35 553.8 255.2 549.65 255.2 540.85 287 540.75 287 535.1 255.2 528.5 255.2 518.15 292.35
M 519.1 255.2
L 514.55 255.2 504.15 292.35 508.8 292.35 519.1 255.2
M 635.2 265.65
Q 637.1 259.9 635.1 257.1 633.15 254.45 627.4 254.55 622.85 254.55 619.75 256.05 616.7 257.25 614.9 259.65 613.3 262 612.4 264.9 611.45 268.2 612.45 270.4 613.5 272.65 615.3 274.25 617.2 275.75 619.1 277 621.05 278.3 622.2 279.7 623.5 281.15 622.95 283 622.45 284.9 621.05 286.15 619.9 287.15 617.85 287.15 615.85 287.15 615.2 286.4 614.35 285.55 614.55 284.05 614.65 282.45 615.3 280.75
L 607.55 280.75
Q 606.35 284.05 606.35 286.8 606.35 289.55 608.4 291.25 610.5 292.85 615.2 292.85 617.45 292.85 619.65 292.45 622 292.15 624.15 291.05 626.55 290 628.3 287.85 629.9 285.75 631.05 282.1 632 278.7 631.05 276.4 630.1 274.25 628.05 272.65 626.35 271.35 624.15 270 622.3 268.85 621.25 267.45 620 266.15 620.4 264.05 621.05 262.1 622.45 261.15 623.8 260.1 625.7 260.1 627.2 260.1 627.65 260.85 628.25 261.8 628.25 263 628.05 264.35 627.65 265.65
L 635.2 265.65
M 584 287
L 582.55 292.35 587.4 292.35 588.9 287 584 287
M 582.1 265.2
Q 584 259.45 581.9 256.9 579.75 254.45 573.6 254.45 569.75 254.55 566.7 256.05 563.8 257.55 561.7 260.2 559.75 262.85 558.7 266.6
L 555.4 278.85
Q 553.8 283.95 554.15 287.1 554.75 290.2 556.7 291.7 559 293.1 562.95 293.1 566.45 293.1 569.55 292.35 572.55 291.6 575 290.3
L 580.1 272.25 568.7 272.25 567.45 276.4 574.15 276.4 571.05 287.45
Q 570.3 288.1 568.4 288.7 566.55 289.15 564 289.15 561.8 289.15 560.6 288.4 559.25 287.45 559.15 285.2 558.9 283 560.1 278.95
L 563.6 266.5
Q 564.35 263.7 565.6 262 566.9 260.3 568.25 259.55 569.65 258.85 570.95 258.7 572.1 258.4 572.55 258.4 576.15 258.4 577.2 260.2 578.25 261.8 577.3 265.2
L 582.1 265.2
M 359 292.35
Q 360.5 292.35 362.55 292.1 364.45 291.7 366.6 290.65 368.6 289.65 370.2 287.45 371.8 285.5 373.05 281.9 374 278 372.95 275.75 371.6 273.5 367.75 273.1
L 367.95 272.85
Q 371.6 271.9 373.7 269.7 375.85 267.45 376.7 264.05 376.8 263.4 376.9 262 377.1 260.75 376.55 259.05 376.25 258 375.6 257.1 374.65 256.4 373.4 255.85 372 255.4 369.45 255.2
L 357.3 255.2 347 292.35 359 292.35
M 357.75 270.95
L 360.95 259.45 367.65 259.45
Q 370.6 259.45 371.45 261.15 372.45 262.65 371.7 264.9 370.95 267.75 369.15 269.35 367.4 270.75 364.55 270.95
L 357.75 270.95
M 356.55 275
L 361.6 275
Q 364.1 275 365.85 275.5 367.55 276.05 368.25 277.55 368.9 278.95 368.25 281.9 367.75 283.3 366.6 284.8 365.7 286.25 363.8 287.15 362 288.1 359.65 288.3
L 352.85 288.3 356.55 275
M 327.45 292.35
L 328.7 288.4 324.85 288.4 323.7 292.35 327.45 292.35
M 472.2 292.35
L 480.75 292.35
Q 485.7 292.35 488.9 291.25 492.1 289.9 494.25 287.45 495.95 285.75 497.45 282.1 499.1 278.6 500.75 272.55 500.95 272.15 501.25 270.75 501.55 269.35 501.9 267.45 502.2 265.65 502.45 263.95 502.55 262.1 502.45 260.95 501.8 258 499.65 256.7 497.45 255.2 494 255.2
L 482.55 255.2 472.2 292.35
M 482.55 288.3
L 478.15 288.3 486.15 259.45 492.4 259.45
Q 496.15 259.35 497.2 261.8 498.4 264.25 496.7 269.65
L 494.65 277.15
Q 493.5 281.4 492 283.85 490.3 286.25 488.25 287.15 485.85 288.3 482.55 288.3
M 438.3 292.35
L 442.45 292.35 451.45 260.2 457.2 292.35 463.7 292.35 474 255.2 469.85 255.2 461.05 287 460.85 287 455.3 255.2 448.7 255.2 438.3 292.35
M 407.45 264.55
Q 408.15 262.1 407.65 260.1 407.45 258 405.95 256.7 404.35 255.4 401.15 255.2
L 388.3 255.2 378.05 292.35 382.75 292.35 387.4 275.3 392.95 275.3
Q 393.8 275.3 394.9 275.5 396.15 275.75 396.8 276.8 397.65 277.85 397.2 279.9 396.7 282.45 396.15 284.8 395.6 287.1 395.2 289.15 394.9 291.05 395.2 292.35
L 400.2 292.35
Q 400.2 291.5 400.3 290 400.5 288.8 400.7 287.15 400.95 285.75 401.25 284.55 401.45 283.3 401.55 282.65 402.45 278.95 402.4 277 402.4 275 401.25 274.25 400.2 273.3 398.15 273.1
L 398.15 272.95
Q 401.7 272.25 404 270.1 406.25 267.85 407.45 264.55
M 400.95 268.1
Q 400 269.45 398.7 270.3 397.4 271.25 395.6 271.25
L 388.6 271.25 391.9 259.45 399 259.45
Q 400.85 259.45 401.7 260.3 402.45 261.15 402.55 262.35 402.75 263.7 402.45 265 401.9 266.8 400.95 268.1
M 431.25 255.2
L 425.3 255.2 403.25 292.35 408.15 292.35 413.25 283.6 427.45 283.6 427.75 292.35 433.15 292.35 431.25 255.2
M 426.8 259.65
L 426.9 259.65 427.3 279.45 415.5 279.45 426.8 259.65
M 720.95 257.65
Q 719.35 255.2 715.3 255.1
L 701.05 255.1 690.7 292.15 698.5 292.15 702.65 276.9 704.65 276.9
Q 706.8 276.9 707.85 277.55 708.9 278.2 709 279.35 709.1 280.4 708.9 281.9 708.4 283.3 708.05 285.1 707.45 286.9 707 288.7 706.55 290.55 706.7 292.15
L 714.35 292.15
Q 714.25 291.6 714.35 290.2 714.65 288.8 715 287.1 715.6 285.3 715.75 283.85 716.35 282.25 716.55 281.4 717.2 278.85 716.8 277.35 716.35 276.05 715.6 275.3 714.65 274.65 713.5 274.35 712.45 274.15 711.8 274.15
L 711.8 274.05
Q 715.75 273.2 718.15 270.95 720.4 268.5 721.35 264.8 722.55 260.1 720.95 257.65
M 710.6 260.85
Q 712.45 260.85 713.25 262 713.8 263.1 713.25 265.65 712.85 266.9 712.1 268.2 711.45 269.35 710.5 270.3 709.25 271.25 707.75 271.25
L 704.25 271.25 707.1 260.85 710.6 260.85
M 662.75 260.85
L 664.35 255.1 644.1 255.1 633.8 292.15 654.45 292.15 656.05 286.5 643.15 286.5 646.25 275.65 657.65 275.65 659.15 270 647.65 270 650.2 260.85 662.75 260.85
M 687.45 255.1
L 677.3 255.1 656.6 292.15 664.25 292.15 668.8 284.05 679.15 284.05 679 292.15 687.2 292.15 687.45 255.1
M 679.65 262.15
L 679.85 262.15 679.15 278.3 671.7 278.3 679.65 262.15
M 786.8 285.5
L 780.6 285.5 778.7 292.15 784.9 292.15 786.8 285.5
M 749.55 266.8
Q 751.45 260.85 749.85 257.65 748.25 254.55 742.3 254.55 737.55 254.55 734.55 256.15 731.35 257.65 729.45 260.5 727.45 263.1 726.35 266.6 725.2 270 724.15 273.8 723.05 277.35 722.4 280.75 721.6 284.25 722.2 286.9 722.55 289.65 724.75 291.25 727 292.85 731.7 292.85 735.3 292.85 738.15 291.6 740.95 290.4 742.95 287.45 745 284.65 746.35 279.7
L 738.8 279.7
Q 738.4 281.25 737.75 283 737.1 284.65 736.05 285.95 735 287.15 733.3 287.15 731.15 287.35 730.3 285.85 729.65 284.45 730.1 281.5 730.75 278.5 732 273.8 733.4 269.05 734.35 265.95 735.7 262.85 737.1 261.5 738.7 260.1 740.75 260.1 742.45 260.1 742.85 261.6 743.15 263.3 742 266.8
L 749.55 266.8
M 762.1 270
L 766.35 255.1 758.5 255.1 748.25 292.15 755.95 292.15 760.6 275.65 769.45 275.65 764.85 292.15 772.55 292.15 782.85 255.1 775.2 255.1 771.05 270 762.1 270 Z"/>
</g>

<g id="Layer1_0_FILL">
<path fill="#000000" stroke="none" d="
M 536.35 200.55
Q 536.6 199.45 537 198.4
L 495.5 198.4 491.35 213.8 532.85 213.8 536.35 200.55
M 502.55 172.85
L 499 186.05 540.5 186.05 544 172.85 502.55 172.85 Z"/>

<path fill="#13A6BF" stroke="none" d="
M 471.15 200.55
L 471.6 198.4 428.05 198.4 423.8 213.8 467.45 213.8 470.95 200.55 471.15 200.55
M 435.2 172.85
L 431.45 186.05 475.1 186.05 478.7 172.85 435.2 172.85 Z"/>
</g>

<g id="Layer0_0_FILL">
<path fill="#13A6BF" stroke="none" d="
M 521.2 43.05
L 525 28.55 525 28.5 524.95 28.5 490.95 50.6 426.45 50.6 417.75 82.3 460 82.3 460 82.35 437 165.95 480.5 165.95 503.3 82.3 460.05 82.3 521.15 43.05 521.2 43.05 Z"/>

<path fill="#000000" stroke="none" d="
M 526.4 85.4
Q 525.95 86.9 525.55 88.45
L 504.35 165.95 545.95 165.95 549.35 153.8 549.15 153.8 569.1 82.3 527.2 82.3 526.4 85.4
M 569.1 82.3
L 604.55 82.3 613.3 50.6 556.85 50.6 535 28.55 531.2 43.05 531.15 43.05 569.1 82.3 Z"/>
</g>
</defs>

<g transform="matrix( 1, 0, 0, 1, 0,0) ">
<use xlink:href="#Layer7_0_FILL"/>
</g>

<g transform="matrix( 1, 0, 0, 1, 0,0) ">
<use xlink:href="#Layer6_0_FILL"/>
</g>

<g transform="matrix( 1, 0, 0, 1, 0,0) ">
<use xlink:href="#Layer5_0_FILL"/>
</g>

<g transform="matrix( 1, 0, 0, 1, 0,0) ">
<use xlink:href="#Layer4_0_FILL"/>
</g>

<g transform="matrix( 1, 0, 0, 1, 0,0) ">
<use xlink:href="#Layer2_0_FILL"/>
</g>

<g transform="matrix( 1, 0, 0, 1, 0,0) ">
<use xlink:href="#Layer1_0_FILL"/>
</g>

<g transform="matrix( 1, 0, 0, 1, 0,0) ">
<use xlink:href="#Layer0_0_FILL"/>
</g>
</svg>
