
<svg xmlns="http://www.w3.org/2000/svg" version="1.1" xmlns:xlink="http://www.w3.org/1999/xlink" preserveAspectRatio="none" x="0px" y="0px" style="width: 100%; height: auto;" viewBox="0 0 550 250">
<defs>
<g id="Layer6_0_FILL">
<path fill="#000000" stroke="none" d="
M 371.75 97.3
Q 375.45 93.2 380.1 90.45
L 327.5 90.45 312.95 143.1 359.25 143.1 362.4 132.05 333.05 132.05 335.75 122.3 360.55 122.3
Q 360.95 119.3 361.9 115.85 362.55 113.45 363.4 111.25
L 338.8 111.25 341.3 102.5 367.75 102.5
Q 368.25 101.7 368.4 101.5 368.8 100.85 369.3 100.2 370.25 98.9 371.35 97.7 371.55 97.5 371.75 97.3
M 414.65 89.85
Q 414.05 89.7 413.4 89.55 409 88.6 403.95 88.6 395.05 88.55 387.7 91.05 387.2 91.2 386.7 91.4 378.95 94.25 373.45 100.4 372.55 101.4 371.75 102.5 371.7 102.55 371.65 102.6 367.45 108.25 365.15 116.4 363.1 123.75 363.85 129 364.65 134.25 367.6 137.55 370.6 140.9 375.35 142.45 380.05 144.05 386 144.05 393.4 144.1 399.9 142.75
L 402.6 133.15 392.9 133.15
Q 392.2 133.2 391.55 133.25 391 133.25 390.5 133.25 385.45 133.2 382.9 130.85 380.35 128.55 380 124.65 379.65 120.75 380.95 116 381.5 114.1 382.25 112.35 382.8 111.35 383.45 110.45 385.55 107.55 388.35 105.6 389.15 105.05 390.05 104.55 393.05 102.85 396.85 102.5 397.85 102.4 398.95 102.4 400.25 102.35 401.4 102.5
L 411.15 102.5 414.65 89.85 Z"/>
</g>

<g id="Layer5_0_FILL">
<path fill="#13A6BF" stroke="none" d="
M 113.05 90.45
L 93.8 90.45 127.5 143 147.45 143 161.95 90.45 129 90.45 125.7 102.45 141.65 102.45 135.35 125.25 113.05 90.45 Z"/>
</g>

<g id="Layer4_0_FILL">
<path fill="#000000" stroke="none" d="
M 433.25 89.7
L 417.7 89.7 402.8 143.25 418.35 143.25 424.25 121.95 448.1 121.95 442.2 143.25 457.75 143.25 463.45 122.9
Q 467.45 108.35 471.45 93.85 471.6 93.35 471.75 92.85
L 472.5 90.15 485.9 90.15 470.35 74.1 445.55 90.15 456.95 90.15 451.2 111 427.35 111 433.25 89.7 Z"/>
</g>

<g id="Layer3_0_FILL">
<path fill="#13A6BF" stroke="none" d="
M 209.15 97.3
Q 212.85 93.2 217.5 90.45
L 164.9 90.45 150.35 143.1 196.65 143.1 199.8 132.05 170.45 132.05 173.15 122.3 197.95 122.3
Q 198.35 119.3 199.3 115.85 199.95 113.45 200.8 111.25
L 176.2 111.25 178.7 102.5 205.15 102.5
Q 205.65 101.7 205.8 101.5 206.2 100.85 206.7 100.2 207.65 98.9 208.75 97.7 208.95 97.5 209.15 97.3
M 252.05 89.85
Q 251.45 89.7 250.8 89.55 246.4 88.6 241.35 88.6 232.45 88.55 225.1 91.05 224.6 91.2 224.1 91.4 216.35 94.25 210.85 100.4 209.95 101.4 209.15 102.5 209.1 102.55 209.05 102.6 204.85 108.25 202.55 116.4 200.5 123.75 201.25 129 202.05 134.25 205 137.55 208 140.9 212.75 142.45 217.45 144.05 223.4 144.05 230.8 144.1 237.3 142.75
L 240 133.15 230.3 133.15
Q 229.6 133.2 228.95 133.25 228.4 133.25 227.9 133.25 222.85 133.2 220.3 130.85 217.75 128.55 217.4 124.65 217.05 120.75 218.35 116 218.9 114.1 219.65 112.35 220.2 111.35 220.85 110.45 222.95 107.55 225.75 105.6 226.55 105.05 227.45 104.55 230.45 102.85 234.25 102.5 235.25 102.4 236.35 102.4 237.65 102.35 238.8 102.5
L 248.55 102.5 252.05 89.85 Z"/>
</g>

<g id="Layer1_0_FILL">
<path fill="#000000" stroke="none" d="
M 291.65 162.65
L 290.45 162.65 285.75 170.95 285.55 162.65 284.25 162.65 284.65 172.8 282.45 176.65 283.6 176.65 291.65 162.65
M 304.25 165.8
Q 304.45 165.1 304.45 164.5 304.45 163.85 304.2 163.4 303.95 162.95 303.15 162.65 302.45 162.4 301.1 162.4 300.3 162.4 299.55 162.55 298.85 162.7 298.25 163.05 297.65 163.4 297.25 164 296.75 164.6 296.5 165.5
L 299.3 165.5
Q 299.4 165.1 299.55 164.75 299.7 164.4 300.05 164.2 300.3 164 300.8 164 301.55 164 301.6 164.4 301.75 164.8 301.55 165.45
L 301.3 166.25
Q 300.3 166.2 299.4 166.3 298.4 166.4 297.6 166.7 296.75 167.05 296.15 167.75 295.5 168.45 295.15 169.7 294.9 170.6 294.95 171.35 295 172.05 295.45 172.5 295.95 172.95 296.95 172.95 297.85 172.95 298.6 172.55 299.35 172.2 299.95 171.4
L 300 171.4 299.8 172.75 302.4 172.75
Q 302.5 172.3 302.6 171.8 302.7 171.35 302.85 170.85
L 304.25 165.8
M 297.95 169.6
Q 298.2 168.7 298.65 168.35 299 168 299.6 167.9 300.15 167.85 300.85 167.85 300.75 168.25 300.6 168.85 300.45 169.4 300.2 169.95 299.95 170.45 299.55 170.85 299.15 171.2 298.55 171.2 298.1 171.2 297.9 170.95 297.75 170.7 297.75 170.3 297.85 169.95 297.95 169.6
M 312.85 162.4
Q 312.45 162.4 312.05 162.45 311.7 162.55 311.35 162.65 311 162.8 310.7 163.05 310.4 163.25 310.1 163.6
L 310.05 163.6 310.3 162.6 307.5 162.6 304.7 172.75 307.5 172.75 309.45 165.75
Q 309.65 165.05 309.95 164.6 310.3 164.15 311 164.15 311.65 164.15 311.7 164.6 311.8 165.05 311.6 165.75
L 309.65 172.75 312.5 172.75 314.75 164.6
Q 314.9 163.9 314.7 163.4 314.5 162.9 314 162.65 313.5 162.4 312.85 162.4
M 278.9 158.25
L 277.65 158.25 273.9 171.8
Q 273.8 172.05 273.75 172.3 273.6 172.55 273.5 172.8
L 274.75 172.8 275.1 171.6 275.15 171.6
Q 275.3 172.3 275.85 172.65 276.4 173 277.3 173 278.4 173 279.15 172.5 279.9 172 280.45 171.2 280.95 170.4 281.3 169.5 281.7 168.55 281.85 167.7 282.1 167 282.3 166.1 282.55 165.25 282.55 164.4 282.5 163.55 282 163 281.55 162.45 280.35 162.45 279.5 162.45 278.75 162.75 278.05 163.1 277.35 163.8
L 278.9 158.25
M 279.6 163.4
Q 280.65 163.4 281 164 281.35 164.6 281.15 165.55 281.05 166.55 280.65 167.75 280.35 168.95 279.95 169.9 279.6 170.9 278.9 171.45 278.25 172.05 277.2 172.05 276.35 172 276.05 171.55 275.7 171.1 275.7 170.4 275.7 169.7 275.85 168.95 276.1 168.2 276.25 167.55 276.4 167 276.65 166.25 276.9 165.55 277.35 164.9 277.8 164.25 278.3 163.85 278.85 163.4 279.6 163.4
M 371.8 172.75
L 372.55 170.1 370.1 170.1 369.35 172.75 371.8 172.75
M 324.4 165.8
Q 324.6 165.1 324.6 164.5 324.6 163.85 324.35 163.4 324.1 162.95 323.3 162.65 322.6 162.4 321.25 162.4 320.45 162.4 319.7 162.55 319 162.7 318.4 163.05 317.8 163.4 317.4 164 316.9 164.6 316.65 165.5
L 319.45 165.5
Q 319.55 165.1 319.7 164.75 319.85 164.4 320.2 164.2 320.45 164 320.95 164 321.7 164 321.75 164.4 321.9 164.8 321.7 165.45
L 321.45 166.25
Q 320.45 166.2 319.55 166.3 318.55 166.4 317.75 166.7 316.9 167.05 316.3 167.75 315.65 168.45 315.3 169.7 315.05 170.6 315.1 171.35 315.15 172.05 315.6 172.5 316.1 172.95 317.1 172.95 318 172.95 318.75 172.55 319.5 172.2 320.1 171.4
L 320.15 171.4 319.95 172.75 322.55 172.75
Q 322.65 172.3 322.75 171.8 322.85 171.35 323 170.85
L 324.4 165.8
M 318.1 169.6
Q 318.35 168.7 318.8 168.35 319.15 168 319.75 167.9 320.3 167.85 321 167.85 320.9 168.25 320.75 168.85 320.6 169.4 320.35 169.95 320.1 170.45 319.7 170.85 319.3 171.2 318.7 171.2 318.25 171.2 318.05 170.95 317.9 170.7 317.9 170.3 318 169.95 318.1 169.6
M 332.25 162.6
L 332.2 172.85 330.05 176.6 333.05 176.6 340.8 162.6 338.05 162.6 334.6 169.75 334.55 169.75 335.05 162.6 332.25 162.6
M 331.9 158.2
L 329.05 158.2 325 172.75 327.85 172.75 331.9 158.2
M 363.15 163.55
Q 362.4 164.15 362.1 165.25 361.8 166.2 362.15 166.8 362.5 167.4 363.15 167.75 363.75 168.1 364.4 168.45 365.05 168.75 365.45 169.15 365.85 169.55 365.65 170.15 365.55 170.7 365.15 170.95 364.8 171.2 364.4 171.2 363.95 171.2 363.7 171.1 363.5 170.95 363.45 170.75 363.45 170.5 363.45 170.15 363.55 169.85 363.65 169.5
L 360.9 169.5
Q 360.4 170.9 360.7 171.65 360.95 172.4 361.8 172.7 362.65 172.95 363.9 172.95 365.1 172.95 366.05 172.55 367 172.15 367.65 171.45 368.3 170.75 368.55 169.85 368.8 168.9 368.5 168.25 368.15 167.65 367.55 167.25 366.9 166.8 366.25 166.5 365.55 166.2 365.2 165.85 364.8 165.55 364.9 165.05 365.05 164.55 365.35 164.25 365.7 164 366.15 164 366.4 164 366.6 164 366.7 164.05 366.85 164.2 366.95 164.35 366.9 164.65 366.9 164.95 366.75 165.5
L 369.5 165.5
Q 369.85 164.4 369.6 163.7 369.3 163.05 368.6 162.7 367.85 162.4 366.9 162.4 365.95 162.4 364.95 162.65 363.95 162.9 363.15 163.55
M 345.1 172.75
L 347.95 172.75 350.75 162.6 347.9 162.6 345.1 172.75
M 344.45 164.35
L 345.95 164.35 346.4 162.6 344.9 162.6 345.7 159.7 342.55 161 342.1 162.6 340.95 162.6 340.5 164.35 341.65 164.35 339.9 170.6
Q 339.75 170.95 339.8 171.45 339.85 172 340.35 172.4 340.85 172.8 342 172.85 342.5 172.85 342.9 172.8 343.25 172.8 343.5 172.75
L 344 171
Q 343.9 171.05 343.8 171.05 343.65 171.05 343.5 171.05 343.05 171.05 342.85 170.9 342.75 170.75 342.8 170.45 342.8 170.15 342.95 169.75
L 344.45 164.35
M 353.35 163.9
Q 352.75 164.65 352.35 165.55 351.95 166.5 351.7 167.55 351.3 168.75 351.2 169.75 351.05 170.7 351.3 171.45 351.5 172.15 352.25 172.55 352.95 172.95 354.35 172.95 356.35 172.95 357.65 172 358.95 171.05 359.55 169
L 356.75 169
Q 356.45 170 355.95 170.6 355.5 171.15 354.85 171.15 354.3 171.15 354.05 170.85 353.9 170.55 354.05 169.75 354.1 168.9 354.55 167.4 354.85 166.3 355.15 165.6 355.4 164.9 355.8 164.55 356.2 164.2 356.8 164.2 357.45 164.2 357.6 164.65 357.8 165.1 357.45 166.2
L 360.3 166.2
Q 360.8 164.2 360.05 163.3 359.25 162.4 357.3 162.4 355.9 162.4 354.9 162.8 353.95 163.2 353.35 163.9
M 348.5 160.45
L 351.35 160.45 352 158.2 349.15 158.2 348.5 160.45
M 378.6 147.9
L 375.95 147.9 369.95 156.45 372.5 156.45 374.8 153.1 370.35 169 372.55 169 376.95 153.2 377.35 156.45 379.9 156.45 378.6 147.9 Z"/>

<path fill="#13A6BF" stroke="none" d="
M 251.85 171.55
Q 252.1 172.4 252.8 172.7 253.55 173.05 254.4 173 255.95 173.05 257.05 172.3 258.2 171.5 258.8 169.7
L 257.55 169.7
Q 257.25 170.75 256.55 171.4 255.8 172 254.65 172.05 253.7 172 253.35 171.5 253 171 253.05 170.25 253.05 169.5 253.3 168.75
L 253.5 167.95 259.3 167.95
Q 259.65 166.85 259.85 165.85 260.05 164.85 259.95 164.05 259.85 163.3 259.25 162.9 258.65 162.45 257.35 162.45 255.65 162.45 254.45 163.5 253.25 164.55 252.65 166.7
L 251.95 169.2
Q 251.55 170.75 251.85 171.55
M 258.4 163.85
Q 258.75 164.25 258.75 165.05 258.7 165.9 258.35 167
L 253.75 167
Q 254.1 165.9 254.5 165.05 254.85 164.25 255.5 163.85 256.1 163.4 257.05 163.4 258 163.4 258.4 163.85
M 270.65 158.25
L 269.45 158.25 267.95 163.65 267.9 163.65
Q 267.6 163.05 267.05 162.75 266.5 162.45 265.8 162.45 264.65 162.45 263.85 163 263.05 163.5 262.55 164.35 262 165.15 261.7 166.05 261.45 166.95 261.2 167.7 260.95 168.6 260.75 169.55 260.6 170.45 260.7 171.25 260.75 172.05 261.25 172.5 261.75 173 262.85 173 263.7 173 264.45 172.65 265.15 172.25 265.8 171.55
L 265.85 171.5 265.55 172.8 266.75 172.8
Q 266.75 172.55 266.85 172.05 266.95 171.55 267.15 170.8
L 270.65 158.25
M 267.3 166.05
Q 267.2 166.6 267.1 166.85
L 266.6 168.65
Q 266.25 169.85 265.7 170.6 265.2 171.4 264.6 171.7 264 172.05 263.4 172.05 262.9 172.05 262.55 171.9 262.2 171.75 262 171.3 261.9 170.9 261.9 170 262 169.15 262.4 167.75 262.75 166.55 263.1 165.55 263.5 164.6 264.1 164 264.7 163.4 265.75 163.4 266.6 163.4 267 163.85 267.3 164.3 267.35 164.9 267.4 165.5 267.3 166.05
M 209.65 166.4
Q 209.95 165.3 210.4 164.65 210.9 163.95 211.55 163.7 212.1 163.4 212.65 163.4 213.3 163.4 213.65 163.75 214 164.05 214.05 164.55 214.05 165.1 213.85 165.7
L 211.9 172.8 213.1 172.8 215.1 165.65
Q 215.3 164.95 215.35 164.2 215.35 163.5 214.9 162.95 214.45 162.45 213.25 162.45 212.4 162.45 211.65 162.85 210.95 163.25 210.4 163.9
L 210.35 163.9 210.65 162.65 209.45 162.65 206.65 172.8 207.85 172.8 209.65 166.4
M 242.9 169.55
Q 242.75 170.45 242.85 171.25 242.9 172.05 243.4 172.5 243.9 173 245 173 245.85 173 246.6 172.65 247.3 172.25 247.95 171.55
L 248 171.5 247.7 172.8 248.9 172.8
Q 248.9 172.55 249 172.05 249.1 171.55 249.3 170.8
L 252.8 158.25 251.6 158.25 250.1 163.65 250.05 163.65
Q 249.75 163.05 249.2 162.75 248.65 162.45 247.95 162.45 246.8 162.45 246 163 245.2 163.5 244.7 164.35 244.15 165.15 243.85 166.05 243.6 166.95 243.35 167.7 243.1 168.6 242.9 169.55
M 249.5 164.9
Q 249.55 165.5 249.45 166.05 249.35 166.6 249.25 166.85
L 248.75 168.65
Q 248.4 169.85 247.85 170.6 247.35 171.4 246.75 171.7 246.15 172.05 245.55 172.05 245.05 172.05 244.7 171.9 244.35 171.75 244.15 171.3 244.05 170.9 244.05 170 244.15 169.15 244.55 167.75 244.9 166.55 245.25 165.55 245.65 164.6 246.25 164 246.85 163.4 247.9 163.4 248.75 163.4 249.15 163.85 249.45 164.3 249.5 164.9
M 242.3 162.65
L 241.1 162.65 238.3 172.8 239.5 172.8 242.3 162.65
M 230.1 172.55
Q 230.6 173 231.65 173 232.45 173 233.15 172.65 233.85 172.35 234.55 171.7
L 234.25 172.8 235.3 172.8 238.1 162.65 236.9 162.65 234.95 169.8
Q 234.85 170.2 234.5 170.7 234.15 171.2 233.55 171.6 232.9 172 232.1 172.05 231.45 172 231.2 171.7 230.95 171.4 230.9 170.95 230.9 170.5 231 170.15 231.05 169.75 231.1 169.65
L 233 162.65 231.8 162.65 229.8 169.85
Q 229.6 170.65 229.65 171.4 229.7 172.1 230.1 172.55
M 228.7 164.65
Q 228.85 164.25 228.95 163.8 229.15 163.35 229.3 162.65
L 228.15 162.65 227.8 163.9 227.8 163.85
Q 227.6 163.2 227.05 162.8 226.5 162.45 225.7 162.45 224.95 162.45 224.3 162.7 223.7 162.95 223.3 163.3 222.85 163.65 222.6 163.95 222.35 164.25 222.25 164.45 222.05 164.85 221.95 165.1 221.75 165.4 221.65 165.7 221.55 166 221.4 166.5 221.25 167.05 221 167.9 220.75 168.75 220.6 169.6 220.45 170.45 220.55 171.15 220.65 171.85 221.2 172.25 221.75 172.65 222.8 172.7 223.55 172.7 224.25 172.4 225 172.1 225.55 171.45
L 225.6 171.45
Q 225.25 172.95 224.9 173.9 224.55 174.85 223.95 175.3 223.4 175.75 222.25 175.75 221.4 175.75 220.95 175.25 220.55 174.8 220.85 173.9
L 219.65 173.9
Q 219.45 174.45 219.45 175.1 219.5 175.75 220 176.2 220.55 176.7 221.8 176.7 223.2 176.7 224.15 176.3 225.05 175.85 225.55 175.1 226.05 174.3 226.35 173.15
L 228.7 164.65
M 225.6 163.4
Q 226.15 163.4 226.6 163.7 227.05 164 227.15 164.65 227.35 165.3 227.05 166.35 226.75 167.45 226.55 168.15 226.3 168.85 226.15 169.25 226 169.7 225.85 170 225.7 170.3 225.45 170.55 225.35 170.8 225.05 171.1 224.7 171.35 224.3 171.5 223.85 171.7 223.35 171.7 222.25 171.7 222 171.1 221.7 170.5 221.85 169.5 222.05 168.55 222.35 167.5 222.5 166.9 222.75 166.2 223 165.5 223.35 164.85 223.75 164.25 224.25 163.8 224.8 163.4 225.6 163.4
M 242.2 158.25
L 241.75 159.8 243.25 159.8 243.7 158.25 242.2 158.25
M 178.05 158.25
L 176.85 158.25 175.35 163.65 175.3 163.65
Q 175 163.05 174.45 162.75 173.9 162.45 173.2 162.45 172.05 162.45 171.25 163 170.45 163.5 169.95 164.35 169.4 165.15 169.1 166.05 168.85 166.95 168.6 167.7 168.35 168.6 168.15 169.55 168 170.45 168.1 171.25 168.15 172.05 168.65 172.5 169.15 173 170.25 173 171.1 173 171.85 172.65 172.55 172.25 173.2 171.55
L 173.25 171.5 172.95 172.8 174.15 172.8
Q 174.15 172.55 174.25 172.05 174.35 171.55 174.55 170.8
L 178.05 158.25
M 170.5 165.55
Q 170.9 164.6 171.5 164 172.1 163.4 173.15 163.4 174 163.4 174.4 163.85 174.7 164.3 174.75 164.9 174.8 165.5 174.7 166.05 174.6 166.6 174.5 166.85
L 174 168.65
Q 173.65 169.85 173.1 170.6 172.6 171.4 172 171.7 171.4 172.05 170.8 172.05 170.3 172.05 169.95 171.9 169.6 171.75 169.4 171.3 169.3 170.9 169.3 170 169.4 169.15 169.8 167.75 170.15 166.55 170.5 165.55
M 193.65 172.8
L 194.85 172.8 197.65 162.65 196.45 162.65 193.65 172.8
M 199.9 164.45
Q 199.7 164.85 199.6 165.1 199.4 165.4 199.3 165.7 199.2 166 199.05 166.5 198.9 167.05 198.65 167.9 198.4 168.75 198.25 169.6 198.1 170.45 198.2 171.15 198.3 171.85 198.85 172.25 199.4 172.65 200.45 172.7 201.2 172.7 201.9 172.4 202.65 172.1 203.2 171.45
L 203.25 171.45
Q 202.9 172.95 202.55 173.9 202.2 174.85 201.6 175.3 201.05 175.75 199.9 175.75 199.05 175.75 198.6 175.25 198.2 174.8 198.5 173.9
L 197.3 173.9
Q 197.1 174.45 197.1 175.1 197.15 175.75 197.65 176.2 198.2 176.7 199.45 176.7 200.85 176.7 201.8 176.3 202.7 175.85 203.2 175.1 203.7 174.3 204 173.15
L 206.35 164.65
Q 206.5 164.25 206.6 163.8 206.8 163.35 206.95 162.65
L 205.8 162.65 205.45 163.9 205.45 163.85
Q 205.25 163.2 204.7 162.8 204.15 162.45 203.35 162.45 202.6 162.45 201.95 162.7 201.35 162.95 200.95 163.3 200.5 163.65 200.25 163.95 200 164.25 199.9 164.45
M 201 164.85
Q 201.4 164.25 201.9 163.8 202.45 163.4 203.25 163.4 203.8 163.4 204.25 163.7 204.7 164 204.8 164.65 205 165.3 204.7 166.35 204.4 167.45 204.2 168.15 203.95 168.85 203.8 169.25 203.65 169.7 203.5 170 203.35 170.3 203.1 170.55 203 170.8 202.7 171.1 202.35 171.35 201.95 171.5 201.5 171.7 201 171.7 199.9 171.7 199.65 171.1 199.35 170.5 199.5 169.5 199.7 168.55 200 167.5 200.15 166.9 200.4 166.2 200.65 165.5 201 164.85
M 185.15 165.85
Q 185.35 164.85 185.25 164.05 185.15 163.3 184.55 162.9 183.95 162.45 182.65 162.45 180.95 162.45 179.75 163.5 178.55 164.55 177.95 166.7
L 177.25 169.2
Q 176.85 170.75 177.15 171.55 177.4 172.4 178.1 172.7 178.85 173.05 179.7 173 181.25 173.05 182.35 172.3 183.5 171.5 184.1 169.7
L 182.85 169.7
Q 182.55 170.75 181.85 171.4 181.1 172 179.95 172.05 179 172 178.65 171.5 178.3 171 178.35 170.25 178.35 169.5 178.6 168.75
L 178.8 167.95 184.6 167.95
Q 184.95 166.85 185.15 165.85
M 184.05 165.05
Q 184 165.9 183.65 167
L 179.05 167
Q 179.4 165.9 179.8 165.05 180.15 164.25 180.8 163.85 181.4 163.4 182.35 163.4 183.3 163.4 183.7 163.85 184.05 164.25 184.05 165.05
M 190.7 163.4
Q 191.7 163.4 191.9 163.9 192.2 164.4 191.9 165.35
L 193.1 165.35
Q 193.35 164.6 193.25 163.9 193.2 163.25 192.75 162.85 192.3 162.45 191.3 162.45 190.4 162.45 189.6 162.7 188.9 162.95 188.35 163.5 187.8 164.05 187.55 164.95 187.25 165.95 187.55 166.55 187.85 167.15 188.4 167.55 189 167.9 189.55 168.25 190.15 168.6 190.5 169.05 190.8 169.55 190.6 170.3 190.35 171.15 189.85 171.65 189.25 172.1 188.4 172.1 187.6 172.1 187.3 171.8 186.95 171.5 186.95 171 186.95 170.5 187.15 169.8
L 185.95 169.8
Q 185.45 171.4 185.9 172.2 186.45 173 188.1 173 189.5 173 190.5 172.3 191.45 171.55 191.85 170.15 192.1 169.15 191.85 168.5 191.55 167.9 190.95 167.55 190.4 167.15 189.8 166.85 189.25 166.5 188.9 166.05 188.6 165.6 188.75 164.85 189 164.2 189.5 163.8 190.05 163.4 190.7 163.4
M 197.55 158.25
L 197.1 159.8 198.6 159.8 199.05 158.25 197.55 158.25 Z"/>
</g>

<g id="Layer0_0_FILL">
<path fill="#000000" stroke="none" d="
M 292.9 154
L 294.3 148.8
Q 294.4 148.4 294.55 147.95
L 278.25 147.95 276.65 154 292.9 154
M 295.9 143.1
L 297.3 137.95 281.05 137.95 279.65 143.1 295.9 143.1
M 297.85 136.25
L 297.8 136.25 297.55 137.15 297.6 137.15 297.85 136.25
M 307.15 102.6
L 321.05 102.6 324.45 90.15 294.75 90.15 306.85 102.6 290.7 102.6 281.75 135.4 298.05 135.4 299.4 130.6 299.35 130.6 307.15 102.6 Z"/>

<path fill="#13A6BF" stroke="none" d="
M 272.85 147.95
L 255.75 147.95 254.1 154 271.2 154 272.55 148.8 272.65 148.8 272.85 147.95
M 258.55 137.95
L 257.1 143.1 274.2 143.1 275.6 137.95 258.55 137.95
M 287.55 90.15
L 255.15 90.15 251.7 102.6 268.3 102.6 259.25 135.4 276.3 135.4 285.25 102.6 268.35 102.6 287.55 90.15 Z"/>
</g>
</defs>

<g transform="matrix( 1, 0, 0, 1, 0,0) ">
<use xlink:href="#Layer6_0_FILL"/>
</g>

<g transform="matrix( 1, 0, 0, 1, 0,0) ">
<use xlink:href="#Layer5_0_FILL"/>
</g>

<g transform="matrix( 1, 0, 0, 1, 0,0) ">
<use xlink:href="#Layer4_0_FILL"/>
</g>

<g transform="matrix( 1, 0, 0, 1, 0,0) ">
<use xlink:href="#Layer3_0_FILL"/>
</g>

<g transform="matrix( 1, 0, 0, 1, 0,0) ">
<use xlink:href="#Layer1_0_FILL"/>
</g>

<g transform="matrix( 1, 0, 0, 1, 0,0) ">
<use xlink:href="#Layer0_0_FILL"/>
</g>
</svg>
