<?xml version="1.0" encoding="utf-8"?>
<!-- Generator: Adobe Illustrator 21.0.2, SVG Export Plug-In . SVG Version: 6.00 Build 0)  -->
<svg version="1.1" id="Layer_1" xmlns="http://www.w3.org/2000/svg" xmlns:xlink="http://www.w3.org/1999/xlink" x="0px" y="0px"
	 viewBox="0 0 983.4 222" style="enable-background:new 0 0 983.4 222;" xml:space="preserve">
<style type="text/css">
	.st0{fill:#157FFF;}
	.st1{fill:#002F94;}
	.st2{fill:#062C90;}
	.st3{fill:#0B7CF8;}
</style>
<g transform="matrix( 1, 0, 0, 1, 0,0) ">
	<g>
		<g id="Layer7_0_FILL">
			<path class="st0" d="M721.2,43.6c6.3-6.9,13.4-12.7,21.3-17.4H608.4l-37.1,134.4h118.1l8-28.2h-74.8l6.9-24.9h63.2
				c0.7-5.1,1.9-10.6,3.5-16.4c1.1-4.1,2.4-8,3.8-11.8h-62.7l6.4-22.3H711c0.8-1.4,1.4-2.2,1.7-2.5c0.6-1.1,1.4-2.3,2.2-3.4
				c1.6-2.1,3.4-4.2,5.2-6.3C720.5,44.2,720.9,43.9,721.2,43.6 M827.4,23.8c-7.5-1.6-15.5-2.3-24-2.3c-15.2-0.1-29,1.9-41.5,6.2
				c-0.8,0.3-1.7,0.6-2.5,0.8c-13.1,4.9-24.4,12.5-33.8,23c-1.5,1.7-3,3.5-4.3,5.3c-0.1,0.1-0.1,0.1-0.2,0.2
				c-7.2,9.6-12.7,21.4-16.7,35.3c-3.5,12.4-4.5,23.1-3.2,32.1c1.3,8.9,4.5,16.2,9.5,21.8c0.5,0.5,1,1.1,1.5,1.6
				c4.9,4.9,11,8.5,18.4,10.9c7.9,2.8,16.9,4.1,27,4.1c12.6,0.1,24.4-1,35.5-3.3l6.8-24.5h-24.7c-1.2,0.1-2.4,0.1-3.5,0.2
				c-0.9,0-1.7,0-2.6,0c-8.6-0.1-15.1-2.1-19.4-6.1c-4.3-3.9-6.8-9.2-7.4-15.8c-0.6-6.6,0.2-14,2.5-22.1c0.9-3.2,2-6.3,3.3-9.2
				c0.9-1.7,2-3.3,3.1-4.8c3.5-5,7.7-9.1,12.5-12.3c1.4-0.9,2.8-1.9,4.3-2.8c5.1-2.9,10.9-4.6,17.4-5.2c1.7-0.2,3.5-0.2,5.3-0.2
				c2.2-0.1,4.2,0,6.2,0.2h24.9l9-32.2C829.6,24.4,828.5,24.1,827.4,23.8z"/>
		</g>
	</g>
</g>
<g transform="matrix( 1, 0, 0, 1, 0,0) ">
	<g>
		<g id="Layer6_0_FILL">
			<path class="st1" d="M92.1,26.1l-8.4,30.6h40.7l-15.9,58.2l-57-88.8H2.3l85.9,134.1h50.8l37-134.1H92.1z"/>
		</g>
	</g>
</g>
<g transform="matrix( 1, 0, 0, 1, 0,0) ">
	<g>
		<g id="Layer5_0_FILL">
			<path class="st0" d="M976.2,32.3l1.9-6.9h-39.6l-14.7,53.1H863l15-54.2h-39.6l-38,136.6h39.6l15-54.4h61l-15.1,54.4h39.7l14.5-52
				c6.8-24.7,13.6-49.4,20.5-74C975.8,33.9,976,33.1,976.2,32.3"/>
		</g>
	</g>
</g>
<g transform="matrix( 1, 0, 0, 1, 0,0) ">
	<g>
		<g id="Layer4_0_FILL">
			<path class="st1" d="M295.6,44.6c0.3-0.4,0.6-0.7,0.9-1c6.4-6.9,13.5-12.7,21.4-17.4H183.7l-37.2,134.4h118.2l8.1-28.2h-74.9
				l6.9-24.9H268c0.6-5.1,1.7-10.6,3.3-16.4c1.1-4.1,2.4-8,3.9-11.8h-62.8l6.4-22.3h67.5c0.9-1.4,1.4-2.2,1.7-2.5
				c0.6-1.1,1.4-2.3,2.2-3.4C291.9,48.8,293.7,46.7,295.6,44.6 M397,56.9l9.1-32.2c-1.1-0.2-2.2-0.5-3.3-0.9
				c-7.5-1.6-15.5-2.3-24.1-2.3c-15-0.1-28.8,1.9-41.4,6.2c-0.8,0.3-1.7,0.6-2.6,0.8c-13.2,4.9-24.4,12.5-33.7,23
				c-1.6,1.7-3,3.5-4.5,5.3c-0.1,0.1-0.1,0.1-0.2,0.2c-7.1,9.6-12.6,21.4-16.5,35.3c-3.5,12.4-4.7,23.1-3.4,32.1
				c1.4,8.9,4.7,16.2,9.7,21.8c0.5,0.5,1,1.1,1.5,1.6c4.8,4.9,10.9,8.5,18.2,10.9c8,2.8,17.1,4.1,27.2,4.1c12.5,0.1,24.3-1,35.4-3.3
				l6.8-24.5h-24.7c-1.2,0.1-2.4,0.1-3.5,0.2c-0.9,0-1.8,0-2.6,0c-8.6-0.1-15.1-2.1-19.4-6.1c-4.3-3.9-6.8-9.2-7.4-15.8
				c-0.6-6.6,0.2-14,2.4-22.1c0.9-3.2,2.1-6.3,3.4-9.2c0.9-1.7,1.9-3.3,3-4.8c3.6-5,7.8-9.1,12.5-12.3c1.4-0.9,2.8-1.9,4.3-2.8
				c5.2-2.9,11-4.6,17.4-5.2c1.7-0.2,3.4-0.2,5.4-0.2c2.2-0.1,4.3,0,6.2,0.2H397z"/>
		</g>
	</g>
</g>
<g transform="matrix( 1, 0, 0, 1, 0,0) ">
	<g>
		<g id="Layer1_0_FILL">
			<path class="st0" d="M489.9,147.3l-3.5,13.2h41.5l3.5-13.2H489.9z"/>
			<path class="st1" d="M422.5,147.3l-3.8,13.2h43.6l3.6-13.2H422.5z"/>
		</g>
	</g>
</g>
<g transform="matrix( 1, 0, 0, 1, 0,0) ">
	<g>
		<g id="Layer0_0_FILL">
			<path class="st1" d="M508.5,17.5L512.3,3v0h0l-34,22.1h-64.5l-8.7,31.7h42.2v0l-23,83.6h43.5l22.8-83.7h-43.2L508.5,17.5
				L508.5,17.5z"/>
			<path class="st0" d="M513.7,59.8c-0.3,1-0.6,2-0.9,3l-21.2,77.5h41.6l3.4-12.1h-0.2l19.9-71.5h-41.9L513.7,59.8 M556.4,56.7h35.5
				l8.8-31.7h-56.5L522.3,3l-3.8,14.5h0L556.4,56.7z"/>
		</g>
	</g>
</g>
<g>
	<path class="st2" d="M91.1,188.9h7.4c9,0,13,4.7,13.1,11.5c0,9.1-5.8,15.5-15.7,15.5h-9.1L91.1,188.9z M95.8,212
		c6.7,0,10.5-4.2,10.5-11.4c0-4.6-2.3-7.8-8-7.8h-2.8l-3,19.1H95.8z"/>
	<path class="st2" d="M129.6,188.9h16.8l-0.6,4H134l-1.2,7.4h9.5l-0.6,3.8h-9.5l-1.3,7.9h12.6l-0.6,4h-17.5L129.6,188.9z"/>
	<path class="st2" d="M158.5,207.5h4.8c0.1,2.6,1.7,5,5.9,5c3.4,0,5.2-1.6,5.2-4.3c0-2-1.1-3-5-4c-5.7-1.4-8.3-3.3-8.3-7.6
		c0-4.5,3.7-8.1,9.8-8.1c5.7,0,9.3,2.6,9.3,7.8h-4.6c-0.3-3-2.2-4-5-4c-3.2,0-4.7,1.6-4.7,3.8c0,1.8,1.1,2.6,5.1,3.7
		c5.6,1.5,8.4,3.4,8.4,7.7c0,5.1-3.8,8.7-10.4,8.7C162.1,216.3,158.5,212.5,158.5,207.5z"/>
	<path class="st2" d="M198.9,188.9h5.1l-4.3,27h-5.1L198.9,188.9z"/>
	<path class="st2" d="M218.2,204.2c0-8.7,6.1-15.7,14.6-15.6c5.8,0,10.8,2.8,11.2,9h-5c-0.3-3.4-2.7-5.1-6.3-5.1
		c-5.8,0-9.2,5.3-9.2,11.6c0,5,2.5,8.2,7.6,8.2c4.6,0,7-2.9,7.6-6.8h-6.8l0.6-3.8h11.8c-0.7,9.9-5.3,14.5-13.3,14.5
		C222.9,216.3,218.2,211.4,218.2,204.2z"/>
	<path class="st2" d="M262.4,188.9h6l8.2,19.5l3.1-19.5h4.6l-4.3,27h-5.2l-8.9-20.7l-3.3,20.7h-4.6L262.4,188.9z"/>
	<path class="st3" d="M318.9,202h16.7l-0.5,3.2h-16.7L318.9,202z"/>
	<path class="st3" d="M374.1,188.9h9c5.5,0,8.2,2.2,8.2,6.4c0,3.4-1.8,5.6-5.2,6.6c2.9,0.7,4.6,2.6,4.7,5.8c0,5-3.9,8.2-9.9,8.2h-11
		L374.1,188.9z M380.4,212.3c3.6,0,5.4-2,5.4-4.8c0-2.5-1.4-3.8-4.9-3.8h-4.2l-1.4,8.7H380.4z M381.4,200.3c3.5,0,5.1-1.5,5.1-4.5
		c0-2.3-1.2-3.3-4.1-3.3h-4l-1.2,7.8H381.4z"/>
	<path class="st3" d="M409.8,188.9h8.9c5.4,0,9,2.5,8.9,7.2c0,4.8-3.1,7.4-7.1,8.2l6,11.7h-5.3l-5.6-10.9h-3.3l-1.7,10.9h-5
		L409.8,188.9z M417,201.4c3.7,0,5.6-1.6,5.6-5c0-2.5-1.6-3.7-4.5-3.7h-3.9l-1.4,8.6H417z"/>
	<path class="st3" d="M457.6,209.2h-10.3l-3.2,6.7h-4.8l13.3-27h6.6l4.7,27h-5.1L457.6,209.2z M449,205.6h8l-2-12.6L449,205.6z"/>
	<path class="st3" d="M483.2,188.9h6l8.2,19.5l3.1-19.5h4.6l-4.3,27h-5.2l-8.9-20.7l-3.3,20.7h-4.6L483.2,188.9z"/>
	<path class="st3" d="M522.7,188.9h7.4c9,0,13,4.7,13.1,11.5c0,9.1-5.8,15.5-15.7,15.5h-9.1L522.7,188.9z M527.5,212
		c6.7,0,10.5-4.2,10.5-11.4c0-4.6-2.3-7.8-8-7.8h-2.8l-3,19.1H527.5z"/>
	<path class="st3" d="M561.4,188.9h5.1l-4.3,27h-5.1L561.4,188.9z"/>
	<path class="st3" d="M584.2,188.9h6l8.2,19.5l3.1-19.5h4.6l-4.3,27h-5.2l-8.9-20.7l-3.3,20.7H580L584.2,188.9z"/>
	<path class="st3" d="M620.2,204.2c0-8.7,6.1-15.7,14.6-15.6c5.8,0,10.8,2.8,11.2,9h-5c-0.3-3.4-2.7-5.1-6.3-5.1
		c-5.8,0-9.2,5.3-9.2,11.6c0,5,2.5,8.2,7.6,8.2c4.6,0,7-2.9,7.6-6.8h-6.8l0.6-3.8h11.8c-0.7,9.9-5.3,14.5-13.3,14.5
		C625,216.3,620.2,211.4,620.2,204.2z"/>
	<path class="st3" d="M681.4,202h16.7l-0.5,3.2h-16.7L681.4,202z"/>
	<path class="st2" d="M731.8,207.5h4.8c0.1,2.6,1.7,5,5.9,5c3.4,0,5.2-1.6,5.2-4.3c0-2-1.1-3-5-4c-5.7-1.4-8.3-3.3-8.3-7.6
		c0-4.5,3.7-8.1,9.8-8.1c5.7,0,9.3,2.6,9.3,7.8H749c-0.3-3-2.2-4-5-4c-3.2,0-4.7,1.6-4.7,3.8c0,1.8,1.1,2.6,5.1,3.7
		c5.6,1.5,8.4,3.4,8.4,7.7c0,5.1-3.8,8.7-10.4,8.7C735.4,216.3,731.8,212.5,731.8,207.5z"/>
	<path class="st2" d="M772,188.9h16.8l-0.6,4h-11.8l-1.2,7.4h9.5l-0.6,3.8h-9.5l-1.3,7.9h12.6l-0.6,4h-17.5L772,188.9z"/>
	<path class="st2" d="M817.2,209.2h-10.3l-3.2,6.7h-4.8l13.3-27h6.6l4.7,27h-5.1L817.2,209.2z M808.6,205.6h8l-2-12.6L808.6,205.6z"
		/>
	<path class="st2" d="M842.8,188.9h8.9c5.4,0,9,2.5,8.9,7.2c0,4.8-3.1,7.4-7.1,8.2l6,11.7h-5.3l-5.6-10.9h-3.3l-1.7,10.9h-5
		L842.8,188.9z M850,201.4c3.7,0,5.6-1.6,5.6-5c0-2.5-1.6-3.7-4.5-3.7h-3.9l-1.4,8.6H850z"/>
	<path class="st2" d="M875,204.5c0-9,5.8-16,14.6-16c6.1,0,10.4,3.2,10.8,9.5h-4.9c-0.5-3.6-2.3-5.5-6-5.5c-5.9,0-9.2,5.3-9.2,11.9
		c0,4.9,2.3,8,7.3,8c3.7,0,6.2-2.2,7.3-5.8h4.9c-1.3,6.2-6.2,9.8-12.2,9.8C879.8,216.3,875,211.9,875,204.5z"/>
	<path class="st2" d="M917.9,188.9h5l-1.8,11.5h12.1l1.9-11.5h5.1l-4.3,27h-5.1l1.8-11.5h-12.1l-1.8,11.5h-5L917.9,188.9z"/>
</g>
</svg>
